<svg width="126" height="44" viewBox="0 0 126 44" fill="none" xmlns="http://www.w3.org/2000/svg">
<path d="M0 21.2892V0.287137H13.5638V3.47641H3.77791V9.17814H12.8612V12.3674H3.77791V18.0999H13.6453V21.2892H0Z" fill="#0052BF"/>
<path d="M20.2083 0.287137L25.6358 16.818H25.8497L31.2671 0.287137H35.4217L28.0696 21.2892H23.4057L16.0638 0.287137H20.2083Z" fill="#0052BF"/>
<path d="M38.1686 21.2892V0.287137H51.7325V3.47641H41.9465V9.17814H51.0298V12.3674H41.9465V18.0999H51.8139V21.2892H38.1686Z" fill="#0052BF"/>
<path d="M55.5867 21.2892V0.287137H63.4073C65.0095 0.287137 66.3536 0.567438 67.4398 1.12804C68.5328 1.68864 69.3576 2.47485 69.9143 3.48667C70.4778 4.49165 70.7595 5.66413 70.7595 7.0041C70.7595 8.35091 70.4744 9.51997 69.9041 10.5113C69.3407 11.4957 68.509 12.258 67.4093 12.7981C66.3095 13.3314 64.9585 13.598 63.3564 13.598H57.7863V10.4395H62.8473C63.7841 10.4395 64.5512 10.3096 65.1486 10.0498C65.746 9.78318 66.1873 9.39691 66.4724 8.891C66.7643 8.37826 66.9103 7.74929 66.9103 7.0041C66.9103 6.25891 66.7643 5.62311 66.4724 5.09669C66.1805 4.56343 65.7359 4.16007 65.1385 3.88661C64.541 3.60631 63.7705 3.46616 62.8269 3.46616H59.3647V21.2892H55.5867ZM66.3604 11.7726L71.5232 21.2892H67.3074L62.2363 11.7726H66.3604Z" fill="#0052BF"/>
<path d="M74.237 21.2892V0.287137H87.8008V3.47641H78.0149V9.17814H87.0982V12.3674H78.0149V18.0999H87.8823V21.2892H74.237Z" fill="#0052BF"/>
<path d="M102.989 6.06065C102.894 5.16505 102.493 4.46772 101.787 3.96865C101.088 3.46958 100.178 3.22004 99.0582 3.22004C98.2707 3.22004 97.5952 3.33968 97.0318 3.57896C96.4683 3.81824 96.0372 4.14298 95.7385 4.55318C95.4398 4.96337 95.2871 5.43168 95.2803 5.9581C95.2803 6.39564 95.3787 6.77507 95.5756 7.09639C95.7793 7.41771 96.0542 7.69118 96.4004 7.91679C96.7466 8.13556 97.1302 8.32015 97.5511 8.47055C97.972 8.62096 98.3963 8.74743 98.824 8.84998L100.779 9.34222C101.567 9.52681 102.324 9.77634 103.05 10.0908C103.783 10.4053 104.438 10.8018 105.015 11.2804C105.599 11.759 106.061 12.3366 106.4 13.0135C106.74 13.6903 106.909 14.4833 106.909 15.3926C106.909 16.6232 106.597 17.7068 105.972 18.6434C105.348 19.5732 104.445 20.3013 103.264 20.8277C102.089 21.3473 100.667 21.6071 98.9971 21.6071C97.3746 21.6071 95.9659 21.3541 94.7711 20.8482C93.5831 20.3423 92.6531 19.604 91.981 18.6332C91.3157 17.6624 90.9559 16.4796 90.9016 15.085H94.6184C94.6727 15.8165 94.8967 16.4249 95.2905 16.9103C95.6842 17.3957 96.1968 17.7581 96.8281 17.9974C97.4662 18.2366 98.1791 18.3563 98.9665 18.3563C99.788 18.3563 100.508 18.2332 101.125 17.9871C101.75 17.7341 102.239 17.3855 102.592 16.9411C102.945 16.4899 103.125 15.9635 103.131 15.3618C103.125 14.8149 102.965 14.3637 102.653 14.0082C102.341 13.6459 101.903 13.345 101.339 13.1058C100.783 12.8596 100.131 12.6409 99.3841 12.4495L97.0114 11.8342C95.2939 11.3898 93.9361 10.7164 92.9382 9.81394C91.947 8.90468 91.4515 7.69801 91.4515 6.19396C91.4515 4.95654 91.7841 3.87294 92.4494 2.94316C93.1215 2.01338 94.0346 1.29212 95.1886 0.779372C96.3427 0.259791 97.6495 0 99.1091 0C100.589 0 101.886 0.259791 102.999 0.779372C104.119 1.29212 104.998 2.00654 105.636 2.92265C106.275 3.83192 106.604 4.87792 106.624 6.06065H102.989Z" fill="#0052BF"/>
<path d="M109.361 3.47641V0.287137H126V3.47641H119.554V21.2892H115.807V3.47641H109.361Z" fill="#0052BF"/>
<path d="M0 43.8115V32.7806H6.3539V33.6855H1.00015V37.8382H6.01695V38.7431H1.00015V42.9066H6.46087V43.8115H0Z" fill="#79889D"/>
<path d="M11.7023 43.9838C11.0284 43.9838 10.4383 43.8043 9.93199 43.4452C9.42567 43.0861 9.02989 42.5852 8.74464 41.9425C8.46296 41.2997 8.32212 40.551 8.32212 39.6964C8.32212 38.8454 8.46296 38.1004 8.74464 37.4612C9.02989 36.8184 9.42745 36.3193 9.93733 35.9638C10.4472 35.6048 11.0409 35.4252 11.7184 35.4252C12.2175 35.4252 12.6329 35.515 12.9645 35.6945C13.2961 35.8705 13.5618 36.0895 13.7614 36.3517C13.9611 36.6138 14.1162 36.8687 14.2268 37.1165H14.3123V32.7806H15.2697V43.8115H14.3391V42.2764H14.2268C14.1162 42.5278 13.9593 42.7863 13.7561 43.052C13.5529 43.3141 13.2837 43.535 12.9485 43.7145C12.6169 43.894 12.2015 43.9838 11.7023 43.9838ZM11.8146 43.1059C12.3459 43.1059 12.7987 42.9604 13.1731 42.6696C13.5475 42.3752 13.8328 41.9712 14.0289 41.4577C14.2285 40.9406 14.3284 40.3482 14.3284 39.6803C14.3284 39.0196 14.2303 38.4361 14.0342 37.9298C13.8381 37.4199 13.5529 37.0213 13.1785 36.7341C12.8041 36.4432 12.3495 36.2978 11.8146 36.2978C11.2655 36.2978 10.802 36.4486 10.424 36.7502C10.0497 37.0483 9.7644 37.4522 9.56829 37.9621C9.37575 38.472 9.27948 39.0447 9.27948 39.6803C9.27948 40.323 9.37753 40.9029 9.57364 41.42C9.76975 41.9371 10.055 42.3482 10.4294 42.6534C10.8073 42.9551 11.2691 43.1059 11.8146 43.1059Z" fill="#79889D"/>
<path d="M23.2014 40.6498V35.5383H24.1534V43.8115H23.2014V42.438H23.1265C22.934 42.8617 22.6291 43.2154 22.2119 43.4991C21.7947 43.7791 21.2849 43.9192 20.6823 43.9192C20.1581 43.9192 19.6928 43.8043 19.2863 43.5745C18.8799 43.3411 18.5607 42.9999 18.329 42.5511C18.0972 42.1023 17.9813 41.5511 17.9813 40.8976V35.5383H18.9333V40.8383C18.9333 41.4846 19.1223 42.0053 19.5003 42.4003C19.8782 42.7917 20.3632 42.9874 20.955 42.9874C21.3259 42.9874 21.6824 42.8976 22.0247 42.7181C22.367 42.5385 22.6487 42.2764 22.8698 41.9317C23.0908 41.5834 23.2014 41.1561 23.2014 40.6498Z" fill="#79889D"/>
<path d="M29.8829 43.9838C29.1484 43.9838 28.5083 43.7989 27.9628 43.429C27.4208 43.0592 27.0001 42.5529 26.7006 41.9101C26.4011 41.2674 26.2513 40.5349 26.2513 39.7126C26.2513 38.8831 26.4028 38.1452 26.7059 37.4989C27.0126 36.8526 27.4369 36.3463 27.9788 35.98C28.5208 35.6102 29.1501 35.4252 29.8668 35.4252C30.4159 35.4252 30.9133 35.533 31.359 35.7484C31.8047 35.9603 32.172 36.2601 32.4608 36.6479C32.7532 37.0321 32.9368 37.4809 33.0117 37.9944H32.049C31.9491 37.5276 31.7085 37.129 31.3269 36.7987C30.949 36.4648 30.4676 36.2978 29.8829 36.2978C29.3587 36.2978 28.8952 36.4414 28.4923 36.7287C28.0894 37.0124 27.7738 37.4091 27.5456 37.919C27.321 38.4253 27.2087 39.0124 27.2087 39.6803C27.2087 40.3518 27.3192 40.946 27.5403 41.4631C27.7613 41.9766 28.0715 42.3787 28.4709 42.6696C28.8738 42.9604 29.3445 43.1059 29.8829 43.1059C30.2466 43.1059 30.5782 43.0376 30.8777 42.9012C31.1807 42.7612 31.4339 42.5637 31.6371 42.3087C31.844 42.0538 31.983 41.7504 32.0543 41.3985H33.017C32.9457 41.8976 32.7692 42.3428 32.4875 42.7342C32.2094 43.122 31.8475 43.4272 31.4018 43.6499C30.9597 43.8725 30.4534 43.9838 29.8829 43.9838Z" fill="#79889D"/>
<path d="M37.3519 44C36.8563 44 36.4035 43.903 35.9934 43.7091C35.5834 43.5116 35.2571 43.228 35.0147 42.8581C34.7722 42.4847 34.651 42.0322 34.651 41.5008C34.651 41.0915 34.7276 40.7467 34.881 40.4667C35.0343 40.1866 35.2518 39.9568 35.5335 39.7772C35.8151 39.5977 36.1485 39.4559 36.5336 39.3517C36.9187 39.2476 37.343 39.1668 37.8065 39.1094C38.2665 39.0519 38.6551 39.0016 38.9725 38.9585C39.2934 38.9155 39.5376 38.8472 39.7052 38.7539C39.8728 38.6605 39.9566 38.5097 39.9566 38.3014V38.1075C39.9566 37.5438 39.789 37.1003 39.4538 36.7772C39.1222 36.4504 38.6444 36.287 38.0205 36.287C37.4286 36.287 36.9454 36.4181 36.571 36.6802C36.2002 36.9423 35.9399 37.2511 35.7902 37.6066L34.8863 37.2781C35.0717 36.8256 35.3284 36.4648 35.6565 36.1955C35.9845 35.9226 36.3518 35.7269 36.7582 35.6084C37.1647 35.4863 37.5765 35.4252 37.9937 35.4252C38.3075 35.4252 38.6338 35.4665 38.9725 35.5491C39.3148 35.6317 39.6321 35.7753 39.9245 35.98C40.2169 36.1811 40.454 36.463 40.6358 36.8256C40.8177 37.1847 40.9086 37.6407 40.9086 38.1937V43.8115H39.9566V42.5026H39.8978C39.7837 42.7468 39.6143 42.9838 39.3897 43.2136C39.165 43.4434 38.8833 43.6319 38.5446 43.7791C38.2059 43.9264 37.8083 44 37.3519 44ZM37.4803 43.122C37.9866 43.122 38.4252 43.0089 38.796 42.7827C39.1668 42.5565 39.4521 42.2567 39.6517 41.8832C39.855 41.5062 39.9566 41.0915 39.9566 40.639V39.4433C39.8853 39.5115 39.7658 39.5726 39.5982 39.6264C39.4342 39.6803 39.2435 39.7288 39.026 39.7718C38.812 39.8113 38.5981 39.8455 38.3842 39.8742C38.1702 39.9029 37.9777 39.928 37.8065 39.9496C37.343 40.007 36.9472 40.0968 36.6192 40.2189C36.2911 40.341 36.0398 40.5098 35.8651 40.7252C35.6903 40.9371 35.603 41.2099 35.603 41.5439C35.603 42.0466 35.7813 42.4362 36.1378 42.7127C36.4944 42.9856 36.9419 43.122 37.4803 43.122Z" fill="#79889D"/>
<path d="M46.6769 35.5383V36.3732H42.7565V35.5383H46.6769ZM43.9813 33.5562H44.9386V41.6516C44.9386 41.9963 44.9975 42.2674 45.1151 42.4649C45.2328 42.6588 45.3861 42.7971 45.5751 42.8797C45.7641 42.9587 45.9655 42.9981 46.1795 42.9981C46.3043 42.9981 46.4112 42.991 46.5004 42.9766C46.5895 42.9587 46.6679 42.9407 46.7357 42.9227L46.9389 43.7899C46.8462 43.8258 46.7321 43.8581 46.5966 43.8869C46.4611 43.9192 46.2936 43.9353 46.0939 43.9353C45.7445 43.9353 45.4075 43.8581 45.083 43.7037C44.7621 43.5493 44.4983 43.3195 44.2915 43.0143C44.0847 42.7091 43.9813 42.3303 43.9813 41.8778V33.5562Z" fill="#79889D"/>
<path d="M48.8496 43.8115V35.5383H49.807V43.8115H48.8496ZM49.3364 34.1164C49.1402 34.1164 48.9727 34.05 48.8336 33.9171C48.6945 33.7807 48.625 33.6173 48.625 33.427C48.625 33.2367 48.6945 33.0751 48.8336 32.9422C48.9727 32.8058 49.1402 32.7375 49.3364 32.7375C49.5325 32.7375 49.7 32.8058 49.8391 32.9422C49.9782 33.0751 50.0477 33.2367 50.0477 33.427C50.0477 33.6173 49.9782 33.7807 49.8391 33.9171C49.7 34.05 49.5325 34.1164 49.3364 34.1164Z" fill="#79889D"/>
<path d="M55.5178 43.9838C54.8082 43.9838 54.1807 43.8025 53.6351 43.4398C53.0932 43.0771 52.6689 42.5762 52.3622 41.9371C52.0556 41.2943 51.9022 40.5528 51.9022 39.7126C51.9022 38.8652 52.0556 38.1201 52.3622 37.4774C52.6689 36.831 53.0932 36.3283 53.6351 35.9692C54.1807 35.6066 54.8082 35.4252 55.5178 35.4252C56.2273 35.4252 56.8531 35.6066 57.3951 35.9692C57.937 36.3319 58.3613 36.8346 58.668 37.4774C58.9782 38.1201 59.1333 38.8652 59.1333 39.7126C59.1333 40.5528 58.98 41.2943 58.6733 41.9371C58.3667 42.5762 57.9406 43.0771 57.3951 43.4398C56.8531 43.8025 56.2273 43.9838 55.5178 43.9838ZM55.5178 43.1059C56.0883 43.1059 56.5714 42.9515 56.9672 42.6427C57.363 42.3339 57.6625 41.9227 57.8657 41.4092C58.0725 40.8958 58.1759 40.3302 58.1759 39.7126C58.1759 39.095 58.0725 38.5277 57.8657 38.0106C57.6625 37.4935 57.363 37.0788 56.9672 36.7664C56.5714 36.454 56.0883 36.2978 55.5178 36.2978C54.9508 36.2978 54.4677 36.454 54.0684 36.7664C53.6726 37.0788 53.3713 37.4935 53.1645 38.0106C52.9612 38.5277 52.8596 39.095 52.8596 39.7126C52.8596 40.3302 52.9612 40.8958 53.1645 41.4092C53.3713 41.9227 53.6726 42.3339 54.0684 42.6427C54.4641 42.9515 54.9473 43.1059 55.5178 43.1059Z" fill="#79889D"/>
<path d="M62.1752 38.6408V43.8115H61.2232V35.5383H62.1485V36.8364H62.234C62.4266 36.4127 62.7261 36.0734 63.1326 35.8184C63.5426 35.5599 64.0489 35.4306 64.6515 35.4306C65.2042 35.4306 65.6891 35.5473 66.1063 35.7807C66.527 36.0105 66.8533 36.3499 67.085 36.7987C67.3204 37.2475 67.438 37.7987 67.438 38.4522V43.8115H66.486V38.5115C66.486 37.8328 66.297 37.296 65.9191 36.901C65.5447 36.5061 65.0419 36.3086 64.4108 36.3086C63.9794 36.3086 63.5961 36.4019 63.2609 36.5886C62.9258 36.7754 62.6601 37.0447 62.464 37.3966C62.2715 37.7449 62.1752 38.1596 62.1752 38.6408Z" fill="#79889D"/>
</svg>
